<svg width="18" height="18" viewBox="0 0 18 18" fill="none" xmlns="http://www.w3.org/2000/svg">
<path d="M9.00156 0.600098C13.6468 0.600098 17.4016 4.3633 17.4016 9.0001C17.4016 13.6453 13.6468 17.4001 9.00156 17.4001C4.36476 17.4001 0.601562 13.6453 0.601562 9.0001C0.601562 4.3633 4.36476 0.600098 9.00156 0.600098ZM8.70756 4.7413C8.36316 4.7413 8.07756 5.0185 8.07756 5.3713V9.6133C8.07756 9.8317 8.19516 10.0333 8.38836 10.1509L11.6812 12.1165C11.782 12.1753 11.8912 12.2089 12.0088 12.2089C12.2188 12.2089 12.4288 12.0997 12.5464 11.8981C12.7228 11.6041 12.6304 11.2177 12.328 11.0329L9.82591 9.54291C9.52309 9.36258 9.33756 9.03616 9.33756 8.68372V5.3713C9.33756 5.0185 9.05196 4.7413 8.70756 4.7413Z" fill="#8DB932"/>
</svg>
