<svg width="24" height="25" viewBox="0 0 24 25" fill="none" xmlns="http://www.w3.org/2000/svg">
<path fill-rule="evenodd" clip-rule="evenodd" d="M5 5.5C3.34315 5.5 2 6.84315 2 8.5V16.5C2 18.1569 3.34315 19.5 5 19.5H19C20.6569 19.5 22 18.1569 22 16.5V8.5C22 6.84315 20.6569 5.5 19 5.5H5ZM5.49607 7.63174C5.01655 7.35773 4.40569 7.52433 4.13168 8.00385C3.85767 8.48337 4.02427 9.09422 4.50379 9.36823L11.5038 13.3682C11.8112 13.5439 12.1886 13.5439 12.4961 13.3682L19.4961 9.36823C19.9756 9.09422 20.1422 8.48337 19.8682 8.00385C19.5942 7.52433 18.9833 7.35773 18.5038 7.63174L12.4961 11.0647C12.1886 11.2404 11.8112 11.2404 11.5038 11.0647L5.49607 7.63174Z" fill="#8DB932"/>
</svg>
