<svg width="28" height="35" viewBox="0 0 28 35" fill="none" xmlns="http://www.w3.org/2000/svg">
<path fill-rule="evenodd" clip-rule="evenodd" d="M2.02344 18.9541C1.47115 18.9541 1.01861 19.4026 1.06464 19.953C1.18711 21.417 1.58257 22.7451 2.25103 23.3308C2.5079 23.5558 2.78071 23.8077 2.8806 24.1343C7.31291 38.6251 20.8338 38.6086 25.1371 24.0849C25.2259 23.7853 25.4587 23.5449 25.6955 23.3409C26.3947 22.7387 26.8075 21.4328 26.9338 19.953C26.9808 19.4027 26.5279 18.9541 25.9756 18.9541H2.02344ZM6.30385 21.5607C5.64305 21.5607 5.16348 22.1909 5.36585 22.8199C9.45209 35.522 19.0065 36.1629 22.9785 21.6729C22.9962 21.6084 23.0556 21.5607 23.1224 21.5607H6.30385Z" fill="#45B2EA"/>
<path fill-rule="evenodd" clip-rule="evenodd" d="M0.909086 14.0259C1.32358 13.7644 1.70752 13.3796 1.74204 12.8908C2.06545 8.31067 4.23426 5.15831 7.11073 3.29983C7.67314 2.93646 8.39267 3.29835 8.50784 3.95796L9.52343 9.77456C9.75009 10.9078 11.5633 10.5679 11.3367 9.43457L9.9968 2.06522C9.98347 1.99191 9.97684 1.91581 9.98665 1.84195C10.3128 -0.613982 17.687 -0.613983 18.0131 1.84195C18.023 1.91581 18.0163 1.99191 18.003 2.06522L16.6631 9.43457C16.4365 10.5679 18.2497 10.9078 18.363 9.77456L19.3815 3.94125C19.4958 3.28665 20.2066 2.92346 20.7693 3.27697C23.7263 5.13481 25.8459 8.3 26.2437 12.9086C26.2852 13.3893 26.6656 13.7631 27.0761 14.0167C28.6079 14.9631 28.2345 17.8209 25.956 17.8209H2.04377C-0.227457 17.8209 -0.605686 14.9814 0.909086 14.0259Z" fill="#45B2EA"/>
</svg>
