<svg width="28" height="28" viewBox="0 0 28 28" fill="none" xmlns="http://www.w3.org/2000/svg">
<path d="M14 0C21.742 0 28 6.272 28 14C28 21.742 21.742 28 14 28C6.272 28 0 21.742 0 14C0 6.272 6.272 0 14 0ZM13.51 6.902C12.936 6.902 12.46 7.364 12.46 7.952V15.022C12.46 15.386 12.656 15.722 12.978 15.918L18.466 19.194C18.634 19.292 18.816 19.348 19.012 19.348C19.362 19.348 19.712 19.166 19.908 18.83C20.202 18.34 20.048 17.696 19.544 17.388L15.0483 14.7108C14.7455 14.5305 14.56 14.2041 14.56 13.8516V7.952C14.56 7.364 14.084 6.902 13.51 6.902Z" fill="#45B2EA"/>
</svg>
