<svg width="30" height="30" viewBox="0 0 30 30" fill="none" xmlns="http://www.w3.org/2000/svg">
<path d="M1.35266 11.0548L8.0248 9.70257C8.48688 9.60893 8.88767 9.32396 9.12788 8.91827L13.5665 1.42201C14.2119 0.331988 15.7893 0.331988 16.4347 1.42201L20.8733 8.91827C21.1135 9.32396 21.5143 9.60893 21.9764 9.70257L28.6485 11.0548C29.9464 11.3178 30.4339 12.9164 29.5038 13.8589L23.9536 19.4831C23.5659 19.8759 23.3979 20.4351 23.5047 20.9765L24.7551 27.3115C25.024 28.6743 23.6058 29.7488 22.3667 29.121L15.7539 25.7705C15.2803 25.5306 14.7208 25.5306 14.2473 25.7705L7.6345 29.121C6.39541 29.7488 4.97714 28.6743 5.24611 27.3115L6.49643 20.9765C6.60329 20.4351 6.43523 19.8759 6.0476 19.4831L0.497415 13.8589C-0.432738 12.9164 0.0548104 11.3178 1.35266 11.0548Z" fill="#45B2EA"/>
</svg>
