<svg width="28" height="25" viewBox="0 0 28 25" fill="none" xmlns="http://www.w3.org/2000/svg">
<path d="M26.9272 4.55182H22.9566C22.4043 4.55182 21.9566 4.1041 21.9566 3.55182V1.05042C21.9566 0.469188 21.4774 0 20.8838 0H3.39719C1.5198 0 0 1.4881 0 3.32633V21.6737C0 23.5119 1.5198 25 3.39719 25H26.9272C27.5208 25 28 24.5308 28 23.9496V5.60224C28 5.02101 27.5208 4.55182 26.9272 4.55182ZM2.10983 3.32633C2.10983 2.65056 2.67126 2.10084 3.36143 2.10084H18.811C19.3633 2.10084 19.811 2.54856 19.811 3.10084V3.55182C19.811 4.10411 19.3633 4.55182 18.811 4.55182H3.39719C2.70702 4.57283 2.13129 4.03711 2.10983 3.36134C2.10983 3.35084 2.10983 3.33683 2.10983 3.32633ZM21.1341 16.9818C19.7502 16.9818 18.6309 15.8859 18.6309 14.5308C18.6309 13.1758 19.7502 12.0798 21.1341 12.0798C22.518 12.0798 23.6373 13.1758 23.6373 14.5308C23.6373 15.8859 22.518 16.9818 21.1341 16.9818Z" fill="#45B2EA"/>
</svg>
